<svg width="800" height="600" xmlns="http://www.w3.org/2000/svg">

 <g>
  <title>Layer 1</title>
  <g id="svg_9">
   <text transform="matrix(5.53645 0 0 6.26281 -1877.66 -1114.53)" stroke="#000" xml:space="preserve" text-anchor="start" font-family="'Reem Kufi'" font-size="24" id="svg_6" y="256.85718" x="345.2457" stroke-width="0" fill="#000000">enigma-hub</text>
   <path stroke="#000" id="svg_7" d="m404.5047,169.53902c29.37748,0 53.21018,17.70516 53.21018,39.50851c0,21.80336 -23.8327,39.49148 -53.21018,39.49148c-29.3775,0 -53.2102,17.70517 -53.2102,39.50852c0,21.80336 23.8327,39.49148 53.2102,39.49148c58.75497,0 106.44331,-35.39331 106.44331,-79.00001c0,-43.60671 -47.68834,-78.99999 -106.44331,-78.99999l0,0.00001zm0,27.1621c-9.18519,0 -16.63537,5.52934 -16.63537,12.34641c0,6.81708 7.45016,12.34641 16.63537,12.34641c9.1852,0 16.63534,-5.52934 16.63534,-12.34641c0,-6.81706 -7.45014,-12.34641 -16.63534,-12.34641zm0,79.00001c9.18045,0 16.63534,5.53286 16.63534,12.34641c0,6.81354 -7.45489,12.34642 -16.63534,12.34642c-9.18046,0 -16.63537,-5.53288 -16.63537,-12.34642c0,-6.81354 7.4549,-12.34641 16.63537,-12.34641zm104.05585,-27.11178c0,43.5743 -47.59491,78.89826 -106.30627,78.89826c-58.71133,0 -106.30627,-35.32396 -106.30627,-78.89826c0,-43.57432 47.59494,-78.89829 106.30627,-78.89829c58.71136,0 106.30627,35.32397 106.30627,78.89829z" stroke-width="0" fill="#000000"/>
  </g>
 </g>
</svg>