<svg width="80" height="50" xmlns="http://www.w3.org/2000/svg" stroke="null">
 <g id="Layer_1">
  <title>Layer 1</title>
  <path d="m21.17589,24.51301c0,0 0,0.07491 0,0.14981c0,0.07491 0,0.14981 0,0.14981c0,0.07491 0.02867,0.23042 0,0.29963c-0.04054,0.09787 0.03103,0.19369 -0.07491,0.29963c-0.05297,0.05297 -0.07491,0.07491 -0.07491,0.14981c0,0.07491 0,0.14981 0,0.22472c0,0.07491 0,0.14981 0,0.22472c0,0.07491 0,0.14981 0,0.22472c0,0.07491 0,0.07491 0,0.14981c0,0.07491 0,0.22472 0,0.29963c0,0.14981 0.01757,0.31103 0.07491,0.44944c0.04054,0.09787 0.07491,0.14981 0.07491,0.22472l0,0.07491" id="svg_2" stroke-width="0" stroke="#ffffff" fill="none"/>
  <polyline transform="rotate(37.2079 21.1759 26.91)" stroke-linecap="round" id="svg_3" points="21.175893143865842,26.91001190805293 21.175893143865842,26.91001190805293 " stroke-width="0" stroke="#ffffff" fill="none"/>
  <text opacity="0.9" transform="matrix(0.61262 0 0 0.866804 7.73194 3.81375)" stroke="#000000" stroke-width="0" xml:space="preserve" text-anchor="start" font-family="'Cinzel'" font-size="20" id="svg_4" y="31.17814" x="0.20404" fill="#ffffff">TechPulse</text>
  <path id="svg_5" d="m-41.37592,-34.87557c18.62508,8.62504 -3.25001,5.87502 0.125,1c3.37501,-4.87502 4.75002,-8.00003 2.37501,2.62501c-2.37501,10.62504 -24.5001,7.25003 -24.37526,7.24993c-0.12484,0.0001 57.7504,-8.37493 57.75024,-8.37503c0.00016,0.0001 8.7502,2.87511 8.8752,2.87511c0.125,0 17.00007,3.12501 16.12507,3.12501c-0.875,0 -36.25015,2.62501 -36.37515,2.62501c-0.125,0 38.25016,-12.00005 38.24999,-12.00015c0.00016,0.0001 -49.62504,11.00015 -49.6252,11.00005c0.00016,0.0001 53.87538,-7.74993 53.87522,-7.75003c0.00016,0.0001 -47.50003,2.75011 -47.75003,2.62511c-0.25,-0.125 -32.25013,-4.25002 -25.75011,-2.62501c6.50003,1.62501 30.50013,0.25 38.37516,-0.25c7.87503,-0.5 23.12509,-0.375 3.25001,-1.37501c-19.87508,-1 -32.50013,-1.62501 -32.75013,-0.625c-0.25,1 -21.00009,-8.75004 -2.37501,-0.125z" opacity="NaN" stroke-width="0" stroke="#000000" fill="#ffffff"/>
  <path id="svg_7" d="m-29.46673,8.50638l0,0l0,-0.00001l0,0.00001zm0.00001,-0.00001l0.02886,0.02887l-0.02886,0.02886l0.01061,0.01062l0.03947,-0.03948l-0.03947,-0.03948l-0.01061,0.01062zm0.05113,0.06762l0.0721,0l0,-0.015l-0.0721,0l0,0.015zm0.02168,-0.03125l0.05042,0l0,-0.015l-0.05042,0l0,0.015zm-0.02168,-0.04625l0,0.01501l0.0721,0l0,-0.01501l-0.0721,0z" stroke-width="0" stroke="#000000" fill="#ffffff"/>
 </g>

</svg>